<svg width="128" height="128" viewBox="0 0 40 40" fill="none" xmlns="http://www.w3.org/2000/svg">
<path d="M39.6377 12.603C38.7598 12.4783 37.884 12.3254 37.0169 12.1378C36.6658 12.0619 36.5455 12.166 36.4263 12.4761C35.8264 14.1242 35.0306 15.6941 34.0559 17.152C33.4774 18.063 32.7105 18.8395 31.807 19.4293C31.2585 19.8106 30.6051 20.0118 29.9373 20.005C29.2694 19.9982 28.6202 19.7837 28.0797 19.3913C27.4262 18.9337 26.8406 18.3861 26.3401 17.7647C24.9389 15.9306 23.8803 13.8583 23.2154 11.6477C22.5369 9.59384 21.9874 7.49663 21.4011 5.41352C21.3155 5.10989 21.2049 4.97976 20.8743 5.00254C20.418 5.0329 19.9574 5.01013 19.4989 5.01013C18.646 5.01013 18.6568 5.01013 18.4563 5.84185C17.7469 9.12525 16.6442 12.3111 15.1723 15.3303C14.5037 16.7874 13.5236 18.0801 12.3012 19.1169C11.6762 19.6709 10.8716 19.9792 10.0366 19.9845C9.20167 19.9899 8.39312 19.6921 7.76103 19.1462C6.69036 18.295 5.82253 17.2159 5.22052 15.9874C4.61033 14.8195 4.09984 13.6017 3.5525 12.4002C3.46905 12.217 3.4257 12.0402 3.14498 12.0944C2.26058 12.2625 1.37075 12.4046 0.484172 12.5629C-0.069667 12.6627 -0.0707509 12.6713 0.099411 13.2059C2.0915 19.5164 4.08467 25.8272 6.07892 32.1383C6.38456 33.1067 6.69237 34.0739 6.98501 35C11.0412 33.0346 15.4892 32.013 19.996 32.0115C24.5028 32.0099 28.9515 33.0287 33.0089 34.9913C33.0425 34.8981 33.0881 34.7744 33.1271 34.6552C34.4855 30.3617 35.8435 26.0682 37.2012 21.7748C38.1145 18.8874 39.0304 16.0008 39.9487 13.1149C40.0571 12.7895 40.0116 12.6562 39.6377 12.603Z" fill="#782DC8"/>
</svg>
