<svg xmlns="http://www.w3.org/2000/svg" width="100" height="100" viewBox="0 0 100 100" fill="none">
<path d="M96.6286 34.8242L82.1755 79.0937C82.0302 79.54 81.7862 79.9477 81.4617 80.2867C81.1372 80.6258 80.7406 80.8874 80.3011 81.0521C79.8617 81.2168 79.3908 81.2805 78.9234 81.2383C78.456 81.1962 78.0042 81.0493 77.6013 80.8086C77.5115 80.7539 67.5232 75 49.9919 75C32.4607 75 22.4724 80.7539 22.3747 80.8125C21.972 81.0509 21.5209 81.1958 21.0547 81.2365C20.5885 81.2773 20.1191 81.2128 19.6811 81.0478C19.2432 80.8828 18.8479 80.6216 18.5244 80.2834C18.2009 79.9451 17.9576 79.5386 17.8122 79.0937L3.36693 34.8125C3.07588 33.9261 3.05345 32.9734 3.30246 32.0742C3.55148 31.1751 4.06082 30.3696 4.76642 29.7592C5.47203 29.1488 6.34237 28.7607 7.268 28.6437C8.19362 28.5267 9.13318 28.686 9.96849 29.1016L29.574 38.8672L45.949 11.6562C46.3699 10.9583 46.964 10.381 47.6737 9.98019C48.3835 9.57943 49.1847 9.36883 49.9997 9.36883C50.8148 9.36883 51.616 9.57943 52.3257 9.98019C53.0355 10.381 53.6296 10.9583 54.0505 11.6562L70.4255 38.8672L90.0388 29.1016C90.8751 28.6854 91.8159 28.5263 92.7425 28.6444C93.6692 28.7626 94.54 29.1526 95.2451 29.7653C95.9502 30.3781 96.4579 31.186 96.7042 32.087C96.9504 32.9881 96.9241 33.942 96.6286 34.8281V34.8242Z" fill="purple"/>
</svg>